<svg xmlns:mydata="http://www.w3.org/2000/svg" mydata:contrastcolor="ffffff" mydata:template="Default" mydata:presentation="2.5" mydata:layouttype="undefined" mydata:specialfontid="undefined" mydata:id1="001" mydata:id2="058" mydata:companyname="calendsync" mydata:companytagline="" version="1.1" xmlns="http://www.w3.org/2000/svg" xmlns:xlink="http://www.w3.org/1999/xlink" viewBox="0 0 550 470" style="height: 817px;"><g fill="#101820" fillRule="none" stroke="none" strokeWidth="1" strokeLinecap="butt" strokeLinejoin="miter" stroke-miterlimit="10" stroke-dasharray="" stroke-dashoffset="0" font-family="none" font-weight="none" font-size="none" text-anchor="none" style="mix-blend-mode: normal"><g data-paper-data="{&quot;isGlobalGroup&quot;:true,&quot;bounds&quot;:{&quot;x&quot;:65,&quot;y&quot;:203.61359118029782,&quot;width&quot;:420,&quot;height&quot;:62.772817639404366}}"><g data-paper-data="{&quot;isPrimaryText&quot;:true}" fillRule="nonzero" id="element-id-78772"><path d="M175.65606,236.90992c-0.82763,3.56519 -3.75618,5.8571 -7.51237,5.8571c-4.13817,0 -7.51237,-3.18321 -7.51237,-7.76702c0,-4.52015 3.3742,-7.76702 7.51237,-7.76702c2.22824,0 4.32916,0.76397 5.98443,2.86489l7.19405,-5.60244c-3.11954,-3.81985 -7.89435,-6.30275 -13.17847,-6.30275c-9.2313,0 -16.68,7.51237 -16.68,16.80733c0,9.16763 7.4487,16.74366 16.68,16.74366c8.65832,0 15.91603,-6.5574 16.87099,-14.83374z" data-paper-data="{&quot;glyphName&quot;:&quot;c&quot;,&quot;glyphIndex&quot;:0,&quot;firstGlyphOfWord&quot;:true,&quot;word&quot;:1}" id="element-id-4537"></path><path d="M211.81728,218.89298v2.22824c-1.40061,-1.52794 -4.9658,-2.92855 -7.83069,-2.92855c-8.59466,0 -15.7887,7.51237 -15.7887,16.80733c0,9.16763 7.00305,16.74366 15.7887,16.74366c2.92855,0 6.43008,-1.14595 7.83069,-2.99221v2.29191h9.0403v-32.15038zM204.87789,242.76702c-4.13817,0 -7.51237,-3.18321 -7.51237,-7.76702c0,-4.52015 3.3742,-7.76702 7.51237,-7.76702c4.20183,0 7.32137,3.24687 7.32137,7.76702c0,4.58382 -3.11954,7.76702 -7.32137,7.76702z" data-paper-data="{&quot;glyphName&quot;:&quot;a&quot;,&quot;glyphIndex&quot;:1,&quot;word&quot;:1}" id="element-id-14661"></path><path d="M227.224,203.61359v47.42977h9.0403v-47.42977z" data-paper-data="{&quot;glyphName&quot;:&quot;l&quot;,&quot;glyphIndex&quot;:2,&quot;word&quot;:1}" id="element-id-84623"></path><path d="M265.67712,239.52015c-1.46427,2.29191 -4.20183,3.24687 -6.93939,3.24687c-0.95496,0 -1.84626,-0.06366 -2.67389,-0.38198l17.95328,-12.86015c-1.97359,-5.98443 -8.08534,-11.33221 -16.04336,-11.33221c-9.2313,0 -16.68,7.51237 -16.68,16.80733c0,9.16763 7.76702,16.74366 17.44397,16.74366c5.72977,0 11.39588,-2.61023 14.13343,-6.68473zM250.4614,235c0,-4.52015 3.3742,-7.76702 7.51237,-7.76702c1.71893,0 3.18321,0.57298 4.45649,1.52794l-11.7142,8.34c-0.19099,-0.63664 -0.25466,-1.33695 -0.25466,-2.10092z" data-paper-data="{&quot;glyphName&quot;:&quot;e&quot;,&quot;glyphIndex&quot;:3,&quot;word&quot;:1}" id="element-id-72159"></path><path d="M310.94231,235c0,-9.29496 -6.11176,-16.80733 -14.8974,-16.80733c-2.92855,0 -6.68473,0.8913 -8.46733,2.92855v-2.22824h-9.0403v32.15038h9.0403v-16.04336c0,-5.15679 3.69252,-7.76702 7.70336,-7.76702c3.69252,0 6.68473,2.61023 6.68473,7.76702v16.04336h8.97664z" data-paper-data="{&quot;glyphName&quot;:&quot;n&quot;,&quot;glyphIndex&quot;:4,&quot;word&quot;:1}" id="element-id-17638"></path><path d="M339.14551,203.61359v17.50763c-1.40061,-1.52794 -4.9658,-2.92855 -7.83069,-2.92855c-8.59466,0 -15.7887,7.51237 -15.7887,16.80733c0,9.16763 7.00305,16.74366 15.7887,16.74366c2.92855,0 6.43008,-1.14595 7.83069,-2.99221v2.29191h9.0403v-47.42977zM332.20612,242.76702c-4.13817,0 -7.51237,-3.18321 -7.51237,-7.76702c0,-4.52015 3.3742,-7.76702 7.51237,-7.76702c4.20183,0 7.32137,3.24687 7.32137,7.76702c0,4.58382 -3.11954,7.76702 -7.32137,7.76702z" data-paper-data="{&quot;glyphName&quot;:&quot;d&quot;,&quot;glyphIndex&quot;:5,&quot;word&quot;:1}" id="element-id-64545"></path><path d="M362.82856,238.11954c2.03725,0.31832 2.86489,1.20962 2.86489,2.4829c0,1.20962 -0.76397,2.16458 -2.41924,2.16458c-1.40061,0 -2.54656,-0.38198 -3.50153,-1.40061l-7.63969,5.53878c2.80122,3.18321 6.30275,4.83847 11.07756,4.83847c6.93939,0 12.35084,-4.45649 12.35084,-11.01389c0,-6.62107 -4.52015,-9.67695 -10.44091,-10.44091c-2.67389,-0.31832 -3.43786,-0.95496 -3.43786,-2.03725c0,-0.95496 0.70031,-1.65527 1.90992,-1.65527c1.20962,0 2.10092,0.57298 2.92855,1.33695l6.49374,-4.71114c-2.29191,-3.31053 -5.47511,-5.02947 -9.61328,-5.02947c-4.77481,0 -10.56824,4.13817 -10.56824,9.74061c0,5.47511 4.13817,9.35862 9.99527,10.18626z" data-paper-data="{&quot;glyphName&quot;:&quot;s&quot;,&quot;glyphIndex&quot;:6,&quot;word&quot;:1}" id="element-id-77491"></path><path d="M388.80352,247.98748l-8.59466,18.39893h9.35862l22.09145,-47.49343h-8.97664l-9.10397,19.92687l-9.29496,-19.92687h-9.9316z" data-paper-data="{&quot;glyphName&quot;:&quot;y&quot;,&quot;glyphIndex&quot;:7,&quot;word&quot;:1}" id="element-id-87932"></path><path d="M446.86519,235c0,-9.29496 -6.11176,-16.80733 -14.8974,-16.80733c-2.92855,0 -6.68473,0.8913 -8.46733,2.92855v-2.22824h-9.0403v32.15038h9.0403v-16.04336c0,-5.15679 3.69252,-7.76702 7.70336,-7.76702c3.69252,0 6.68473,2.61023 6.68473,7.76702v16.04336h8.97664z" data-paper-data="{&quot;glyphName&quot;:&quot;n&quot;,&quot;glyphIndex&quot;:8,&quot;word&quot;:1}" id="element-id-37110"></path><path d="M475.64138,236.90992c-0.82763,3.56519 -3.75618,5.8571 -7.51237,5.8571c-4.13817,0 -7.51237,-3.18321 -7.51237,-7.76702c0,-4.52015 3.3742,-7.76702 7.51237,-7.76702c2.22824,0 4.32916,0.76397 5.98443,2.86489l7.19405,-5.60244c-3.11954,-3.81985 -7.89435,-6.30275 -13.17847,-6.30275c-9.2313,0 -16.68,7.51237 -16.68,16.80733c0,9.16763 7.4487,16.74366 16.68,16.74366c8.65832,0 15.91603,-6.5574 16.87099,-14.83374z" data-paper-data="{&quot;glyphName&quot;:&quot;c&quot;,&quot;glyphIndex&quot;:9,&quot;lastGlyphOfWord&quot;:true,&quot;word&quot;:1}" id="element-id-77840"></path></g><g data-paper-data="{&quot;fillRule&quot;:&quot;evenodd&quot;,&quot;fillRuleOriginal&quot;:&quot;evenodd&quot;,&quot;isIcon&quot;:true,&quot;iconStyle&quot;:&quot;standalone&quot;,&quot;selectedEffects&quot;:{&quot;container&quot;:&quot;&quot;,&quot;transformation&quot;:&quot;&quot;,&quot;pattern&quot;:&quot;&quot;},&quot;bounds&quot;:{&quot;x&quot;:65,&quot;y&quot;:206.05928877922037,&quot;width&quot;:62.39166943097213,&quot;height&quot;:57.881422441559266},&quot;iconType&quot;:&quot;icon&quot;,&quot;rawIconId&quot;:&quot;185201&quot;,&quot;isDetailed&quot;:false,&quot;suitableAsStandaloneIcon&quot;:true}" fillRule="evenodd" id="element-id-40084"><path d="M86.42439,232.22211l-7.26426,-7.26501c-4.8585,7.68561 -3.95317,17.96788 2.74358,24.66762c2.99117,2.98967 6.69601,4.8145 10.56566,5.50133l-1.45718,8.25013c-5.50282,-0.97543 -10.77596,-3.58105 -15.02668,-7.83326c-9.9795,-9.98174 -10.93107,-25.56624 -2.85619,-36.61737l-8.12932,-8.13007l26.04202,-4.7362zM101.22959,263.94071l4.73695,-26.04277l7.34629,7.34555c4.22462,-7.56927 3.13957,-17.30417 -3.29394,-23.73693c-3.0553,-3.05456 -6.86305,-4.88908 -10.82518,-5.54011l1.45643,-8.25461c5.59828,0.9374 10.96836,3.55793 15.28844,7.87726c9.72148,9.72073 10.87067,24.75934 3.46471,35.7456l7.98838,7.98987z" data-paper-data="{&quot;isPathIcon&quot;:true}" id="element-id-53469"></path></g></g></g><rect data-element-id="element-id-78772" strokeWidth="2" fill="transparent" class="invisible-element-box grouping-element" x="151" y="204" width="334" height="63" data-element-name="isPrimaryText"></rect><rect data-element-id="element-id-40084" strokeWidth="2" fill="transparent" class="invisible-element-box grouping-element" x="65" y="206" width="62" height="58" data-element-name="isIcon"></rect><rect data-element-id="element-id-53469" strokeWidth="2" fill="transparent" class="invisible-element-box individual-element" x="65" y="206" width="62" height="58"></rect><rect data-element-id="element-id-87932" strokeWidth="2" fill="transparent" class="invisible-element-box individual-element" x="374" y="219" width="37" height="47"></rect><rect data-element-id="element-id-64545" strokeWidth="2" fill="transparent" class="invisible-element-box individual-element" x="316" y="204" width="33" height="48"></rect><rect data-element-id="element-id-4537" strokeWidth="2" fill="transparent" class="invisible-element-box individual-element" x="151" y="218" width="34" height="34"></rect><rect data-element-id="element-id-77840" strokeWidth="2" fill="transparent" class="invisible-element-box individual-element" x="451" y="218" width="34" height="34"></rect><rect data-element-id="element-id-14661" strokeWidth="2" fill="transparent" class="invisible-element-box individual-element" x="188" y="218" width="33" height="34"></rect><rect data-element-id="element-id-72159" strokeWidth="2" fill="transparent" class="invisible-element-box individual-element" x="241" y="218" width="33" height="34"></rect><rect data-element-id="element-id-17638" strokeWidth="2" fill="transparent" class="invisible-element-box individual-element" x="279" y="218" width="32" height="33"></rect><rect data-element-id="element-id-37110" strokeWidth="2" fill="transparent" class="invisible-element-box individual-element" x="414" y="218" width="32" height="33"></rect><rect data-element-id="element-id-77491" strokeWidth="2" fill="transparent" class="invisible-element-box individual-element" x="352" y="218" width="23" height="34"></rect><rect data-element-id="element-id-84623" strokeWidth="2" fill="transparent" class="invisible-element-box individual-element" x="227" y="204" width="9" height="47"></rect></svg>
