<?xml version="1.0"?>
<svg width="430" height="90" xmlns="http://www.w3.org/2000/svg" xmlns:svg="http://www.w3.org/2000/svg" version="1.1">
 <g class="layer">
  <title>Layer 1</title>
  <g fill="#101820" fillRule="none" font-family="none" font-size="none" font-weight="none" id="svg_1" stroke-dashoffset="0" stroke-miterlimit="10" text-anchor="none">
   <g data-paper-data="{&quot;isGlobalGroup&quot;:true,&quot;bounds&quot;:{&quot;x&quot;:65,&quot;y&quot;:203.61359118029782,&quot;width&quot;:420,&quot;height&quot;:62.772817639404366}}" id="svg_2">
    <g data-paper-data="{&quot;isPrimaryText&quot;:true}" fillRule="nonzero" id="element-id-78772">
     <path d="m115.66,47.91c-0.83,3.57 -3.76,5.86 -7.52,5.86c-4.13,0 -7.51,-3.19 -7.51,-7.77c0,-4.52 3.38,-7.77 7.51,-7.77c2.23,0 4.33,0.77 5.99,2.87l7.19,-5.6c-3.12,-3.82 -7.89,-6.31 -13.18,-6.31c-9.23,0 -16.68,7.52 -16.68,16.81c0,9.17 7.45,16.74 16.68,16.74c8.66,0 15.92,-6.55 16.87,-14.83l-9.35,0z" data-paper-data="{&quot;glyphName&quot;:&quot;c&quot;,&quot;glyphIndex&quot;:0,&quot;firstGlyphOfWord&quot;:true,&quot;word&quot;:1}" id="element-id-4537"/>
     <path d="m151.82,29.89l0,2.23c-1.4,-1.53 -4.97,-2.93 -7.83,-2.93c-8.6,0 -15.79,7.52 -15.79,16.81c0,9.17 7,16.74 15.79,16.74c2.93,0 6.43,-1.14 7.83,-2.99l0,2.29l9.04,0l0,-32.15l-9.04,0zm-6.94,23.88c-4.14,0 -7.51,-3.19 -7.51,-7.77c0,-4.52 3.37,-7.77 7.51,-7.77c4.2,0 7.32,3.25 7.32,7.77c0,4.58 -3.12,7.77 -7.32,7.77z" data-paper-data="{&quot;glyphName&quot;:&quot;a&quot;,&quot;glyphIndex&quot;:1,&quot;word&quot;:1}" id="element-id-14661"/>
     <path d="m167.22,14.61l0,47.43l9.04,0l0,-47.43l-9.04,0z" data-paper-data="{&quot;glyphName&quot;:&quot;l&quot;,&quot;glyphIndex&quot;:2,&quot;word&quot;:1}" id="element-id-84623"/>
     <path d="m205.68,50.52c-1.47,2.29 -4.2,3.25 -6.94,3.25c-0.96,0 -1.85,-0.07 -2.68,-0.38l17.96,-12.87c-1.98,-5.98 -8.09,-11.33 -16.05,-11.33c-9.23,0 -16.68,7.52 -16.68,16.81c0,9.17 7.77,16.74 17.45,16.74c5.73,0 11.39,-2.61 14.13,-6.68l-7.19,-5.54zm-15.22,-4.52c0,-4.52 3.38,-7.77 7.51,-7.77c1.72,0 3.19,0.58 4.46,1.53l-11.71,8.34c-0.19,-0.64 -0.26,-1.34 -0.26,-2.1z" data-paper-data="{&quot;glyphName&quot;:&quot;e&quot;,&quot;glyphIndex&quot;:3,&quot;word&quot;:1}" id="element-id-72159"/>
     <path d="m250.94,46c0,-9.29 -6.11,-16.81 -14.9,-16.81c-2.92,0 -6.68,0.89 -8.46,2.93l0,-2.23l-9.04,0l0,32.15l9.04,0l0,-16.04c0,-5.16 3.69,-7.77 7.7,-7.77c3.69,0 6.69,2.61 6.69,7.77l0,16.04l8.97,0l0,-16.04z" data-paper-data="{&quot;glyphName&quot;:&quot;n&quot;,&quot;glyphIndex&quot;:4,&quot;word&quot;:1}" id="element-id-17638"/>
     <path d="m279.15,14.61l0,17.51c-1.41,-1.53 -4.97,-2.93 -7.84,-2.93c-8.59,0 -15.78,7.52 -15.78,16.81c0,9.17 7,16.74 15.78,16.74c2.93,0 6.43,-1.14 7.84,-2.99l0,2.29l9.04,0l0,-47.43l-9.04,0zm-6.94,39.16c-4.14,0 -7.52,-3.19 -7.52,-7.77c0,-4.52 3.38,-7.77 7.52,-7.77c4.2,0 7.32,3.25 7.32,7.77c0,4.58 -3.12,7.77 -7.32,7.77z" data-paper-data="{&quot;glyphName&quot;:&quot;d&quot;,&quot;glyphIndex&quot;:5,&quot;word&quot;:1}" id="element-id-64545"/>
     <path d="m302.83,49.12c2.04,0.32 2.86,1.21 2.86,2.48c0,1.21 -0.76,2.17 -2.42,2.17c-1.4,0 -2.54,-0.38 -3.5,-1.4l-7.64,5.54c2.8,3.18 6.31,4.83 11.08,4.83c6.94,0 12.35,-4.45 12.35,-11.01c0,-6.62 -4.52,-9.68 -10.44,-10.44c-2.67,-0.32 -3.44,-0.96 -3.44,-2.04c0,-0.95 0.7,-1.65 1.91,-1.65c1.21,0 2.1,0.57 2.93,1.33l6.49,-4.71c-2.29,-3.31 -5.47,-5.03 -9.61,-5.03c-4.77,0 -10.57,4.14 -10.57,9.74c0,5.48 4.14,9.36 10,10.19z" data-paper-data="{&quot;glyphName&quot;:&quot;s&quot;,&quot;glyphIndex&quot;:6,&quot;word&quot;:1}" id="element-id-77491"/>
     <path d="m328.8,58.99l-8.59,18.4l9.36,0l22.09,-47.5l-8.98,0l-9.1,19.93l-9.3,-19.93l-9.93,0l14.45,29.1z" data-paper-data="{&quot;glyphName&quot;:&quot;y&quot;,&quot;glyphIndex&quot;:7,&quot;word&quot;:1}" id="element-id-87932"/>
     <path d="m386.87,46c0,-9.29 -6.12,-16.81 -14.9,-16.81c-2.93,0 -6.69,0.89 -8.47,2.93l0,-2.23l-9.04,0l0,32.15l9.04,0l0,-16.04c0,-5.16 3.69,-7.77 7.7,-7.77c3.7,0 6.69,2.61 6.69,7.77l0,16.04l8.98,0l0,-16.04z" data-paper-data="{&quot;glyphName&quot;:&quot;n&quot;,&quot;glyphIndex&quot;:8,&quot;word&quot;:1}" id="element-id-37110"/>
     <path d="m415.64,47.91c-0.83,3.57 -3.75,5.86 -7.51,5.86c-4.14,0 -7.51,-3.19 -7.51,-7.77c0,-4.52 3.37,-7.77 7.51,-7.77c2.23,0 4.33,0.77 5.98,2.87l7.2,-5.6c-3.12,-3.82 -7.9,-6.31 -13.18,-6.31c-9.23,0 -16.68,7.52 -16.68,16.81c0,9.17 7.45,16.74 16.68,16.74c8.66,0 15.92,-6.55 16.87,-14.83l-9.36,0z" data-paper-data="{&quot;glyphName&quot;:&quot;c&quot;,&quot;glyphIndex&quot;:9,&quot;lastGlyphOfWord&quot;:true,&quot;word&quot;:1}" id="element-id-77840"/>
    </g>
    <g data-paper-data="{&quot;fillRule&quot;:&quot;evenodd&quot;,&quot;fillRuleOriginal&quot;:&quot;evenodd&quot;,&quot;isIcon&quot;:true,&quot;iconStyle&quot;:&quot;standalone&quot;,&quot;selectedEffects&quot;:{&quot;container&quot;:&quot;&quot;,&quot;transformation&quot;:&quot;&quot;,&quot;pattern&quot;:&quot;&quot;},&quot;bounds&quot;:{&quot;x&quot;:65,&quot;y&quot;:206.05928877922037,&quot;width&quot;:62.39166943097213,&quot;height&quot;:57.881422441559266},&quot;iconType&quot;:&quot;icon&quot;,&quot;rawIconId&quot;:&quot;185201&quot;,&quot;isDetailed&quot;:false,&quot;suitableAsStandaloneIcon&quot;:true}" fillRule="evenodd" id="element-id-40084">
     <path d="m26.42,43.22l-7.26,-7.26c-4.86,7.68 -3.95,17.96 2.74,24.66c2.99,2.99 6.7,4.82 10.57,5.51l-1.46,8.25c-5.5,-0.98 -10.77,-3.58 -15.02,-7.84c-9.98,-9.98 -10.94,-25.56 -2.86,-36.61l-8.13,-8.13l26.04,-4.74l-4.62,26.16zm14.81,31.72l4.74,-26.04l7.34,7.34c4.23,-7.57 3.14,-17.3 -3.29,-23.73c-3.06,-3.06 -6.86,-4.89 -10.83,-5.54l1.46,-8.26c5.6,0.94 10.97,3.56 15.29,7.88c9.72,9.72 10.87,24.76 3.46,35.74l7.99,7.99l-26.16,4.62z" data-paper-data="{&quot;isPathIcon&quot;:true}" id="element-id-53469"/>
    </g>
   </g>
  </g>
  <rect class="invisible-element-box grouping-element" data-element-id="element-id-78772" data-element-name="isPrimaryText" fill="transparent" height="63" id="svg_3" strokeWidth="2" width="334" x="91" y="15"/>
  <rect class="invisible-element-box grouping-element" data-element-id="element-id-40084" data-element-name="isIcon" fill="transparent" height="58" id="svg_4" strokeWidth="2" width="62" x="5" y="17"/>
  <rect class="invisible-element-box individual-element" data-element-id="element-id-53469" fill="transparent" height="58" id="svg_5" strokeWidth="2" width="62" x="5" y="17"/>
  <rect class="invisible-element-box individual-element" data-element-id="element-id-87932" fill="transparent" height="47" id="svg_6" strokeWidth="2" width="37" x="314" y="30"/>
  <rect class="invisible-element-box individual-element" data-element-id="element-id-64545" fill="transparent" height="48" id="svg_7" strokeWidth="2" width="33" x="256" y="15"/>
  <rect class="invisible-element-box individual-element" data-element-id="element-id-4537" fill="transparent" height="34" id="svg_8" strokeWidth="2" width="34" x="91" y="29"/>
  <rect class="invisible-element-box individual-element" data-element-id="element-id-77840" fill="transparent" height="34" id="svg_9" strokeWidth="2" width="34" x="391" y="29"/>
  <rect class="invisible-element-box individual-element" data-element-id="element-id-14661" fill="transparent" height="34" id="svg_10" strokeWidth="2" width="33" x="128" y="29"/>
  <rect class="invisible-element-box individual-element" data-element-id="element-id-72159" fill="transparent" height="34" id="svg_11" strokeWidth="2" width="33" x="181" y="29"/>
  <rect class="invisible-element-box individual-element" data-element-id="element-id-17638" fill="transparent" height="33" id="svg_12" strokeWidth="2" width="32" x="219" y="29"/>
  <rect class="invisible-element-box individual-element" data-element-id="element-id-37110" fill="transparent" height="33" id="svg_13" strokeWidth="2" width="32" x="354" y="29"/>
  <rect class="invisible-element-box individual-element" data-element-id="element-id-77491" fill="transparent" height="34" id="svg_14" strokeWidth="2" width="23" x="292" y="29"/>
  <rect class="invisible-element-box individual-element" data-element-id="element-id-84623" fill="transparent" height="47" id="svg_15" strokeWidth="2" width="9" x="167" y="15"/>
 </g>
</svg>